<!-- aurora-dashboard.svg -->
<svg xmlns="http://www.w3.org/2000/svg" viewBox="0 0 1440 900" width="100%" height="100%">
  <!-- Gradient definitions -->
  <defs>
    <linearGradient id="bg-gradient" x1="0%" y1="0%" x2="100%" y2="100%">
      <stop offset="0%" style="stop-color:#1a0b2e;stop-opacity:1" />
      <stop offset="100%" style="stop-color:#0d0618;stop-opacity:1" />
    </linearGradient>
    
    <linearGradient id="header-gradient" x1="0%" y1="0%" x2="100%" y2="0%">
      <stop offset="0%" style="stop-color:#150a24;stop-opacity:0.9" />
      <stop offset="100%" style="stop-color:#090312;stop-opacity:0.9" />
    </linearGradient>
    
    <linearGradient id="button-gradient" x1="0%" y1="0%" x2="0%" y2="100%">
      <stop offset="0%" style="stop-color:#9046FF;stop-opacity:1" />
      <stop offset="100%" style="stop-color:#7532DB;stop-opacity:1" />
    </linearGradient>
    
    <filter id="glow" height="130%">
      <feGaussianBlur in="SourceGraphic" stdDeviation="5" result="blur" />
      <feColorMatrix in="blur" mode="matrix" values="1 0 0 0 0  0 1 0 0 0  0 0 1 0 0  0 0 0 18 -7" result="glow" />
      <feComposite in="SourceGraphic" in2="glow" operator="over" />
    </filter>
    
    <pattern id="grid" width="80" height="80" patternUnits="userSpaceOnUse">
      <path d="M 80 0 L 0 0 0 80" fill="none" stroke="#3D1E6B" stroke-width="0.5"/>
    </pattern>
    
    <clipPath id="rounded-corners">
      <rect x="0" y="0" width="100%" height="100%" rx="6" ry="6" />
    </clipPath>
  </defs>
  
  <!-- Background with grid -->
  <rect width="100%" height="100%" fill="url(#bg-gradient)" />
  <rect width="100%" height="100%" fill="url(#grid)" opacity="0.2" />
  
  <!-- Header bar -->
  <rect x="0" y="0" width="100%" height="70" fill="url(#header-gradient)" />
  
  <!-- Logo -->
  <g transform="translate(30, 35)" filter="url(#glow)">
    <path d="M0,0 L10,15 L20,0 L15,0 L10,7.5 L5,0 Z" fill="#9046FF" />
    <text x="30" y="7" font-family="Arial, sans-serif" font-size="20" font-weight="bold" 
          fill="#ffffff">Aurora Video Synth</text>
  </g>
  
  <!-- User account info -->
  <g transform="translate(1300, 35)">
    <circle cx="0" cy="0" r="15" fill="#7541E2" />
    <text x="-35" y="5" font-family="Arial, sans-serif" font-size="14" fill="#ffffff">Pro</text>
  </g>
  
  <!-- Main content area divided into sections -->
  <g transform="translate(0, 90)">
    <!-- Left sidebar/navigation -->
    <rect x="20" y="20" width="260" height="770" rx="10" ry="10" 
          fill="#150a24" opacity="0.7" stroke="#3D1E6B" stroke-width="1" />
      
    <g transform="translate(40, 50)">
      <rect x="0" y="0" width="220" height="50" rx="8" ry="8" 
            fill="#7541E2" opacity="0.8" filter="url(#glow)" />
      <text x="60" y="30" font-family="Arial, sans-serif" font-size="16" fill="#ffffff">Generate Video</text>
    </g>
    
    <g transform="translate(40, 120)">
      <rect x="0" y="0" width="220" height="50" rx="8" ry="8" 
            fill="#251540" opacity="0.8" />
      <text x="60" y="30" font-family="Arial, sans-serif" font-size="16" fill="#ffffff">Enhance Video</text>
    </g>
    
    <g transform="translate(40, 190)">
      <rect x="0" y="0" width="220" height="50" rx="8" ry="8" 
            fill="#251540" opacity="0.8" />
      <text x="60" y="30" font-family="Arial, sans-serif" font-size="16" fill="#ffffff">Batch Queue</text>
    </g>
    
    <g transform="translate(40, 260)">
      <rect x="0" y="0" width="220" height="50" rx="8" ry="8" 
            fill="#251540" opacity="0.8" />
      <text x="60" y="30" font-family="Arial, sans-serif" font-size="16" fill="#ffffff">My Videos</text>
    </g>
    
    <!-- Processing stats -->
    <g transform="translate(40, 600)">
      <text x="0" y="0" font-family="Arial, sans-serif" font-size="14" fill="#9046FF">Processing Stats</text>
      <rect x="0" y="20" width="220" height="1" fill="#3D1E6B" />
      
      <text x="0" y="50" font-family="Arial, sans-serif" font-size="12" fill="#ffffff">API Usage: 32/500</text>
      <rect x="0" y="60" width="220" height="5" rx="2.5" ry="2.5" fill="#150a24" />
      <rect x="0" y="60" width="30" height="5" rx="2.5" ry="2.5" fill="#9046FF" />
      
      <text x="0" y="90" font-family="Arial, sans-serif" font-size="12" fill="#ffffff">Storage: 128MB / 5GB</text>
      <rect x="0" y="100" width="220" height="5" rx="2.5" ry="2.5" fill="#150a24" />
      <rect x="0" y="100" width="5" height="5" rx="2.5" ry="2.5" fill="#9046FF" />
    </g>
    
    <!-- Main content area -->
    <rect x="300" y="20" width="1120" height="440" rx="10" ry="10" 
          fill="#150a24" opacity="0.7" stroke="#3D1E6B" stroke-width="1" />
    
    <!-- Job history section -->
    <rect x="300" y="480" width="1120" height="310" rx="10" ry="10" 
          fill="#150a24" opacity="0.7" stroke="#3D1E6B" stroke-width="1" />
    <text x="330" y="520" font-family="Arial, sans-serif" font-size="18" fill="#ffffff">Job History</text>
    
    <!-- Sample job items -->
    <g transform="translate(330, 550)">
      <rect x="0" y="0" width="1060" height="70" rx="8" ry="8" 
            fill="#251540" opacity="0.8" />
      <text x="20" y="30" font-family="Arial, sans-serif" font-size="14" fill="#ffffff">Cinematic mountain landscape</text>
      <text x="20" y="50" font-family="Arial, sans-serif" font-size="12" fill="#9046FF">Completed • 02/25/2025 10:30 AM</text>
      
      <rect x="950" y="15" width="90" height="40" rx="20" ry="20" 
            fill="none" stroke="#00C896" stroke-width="1.5" />
      <text x="975" y="38" font-family="Arial, sans-serif" font-size="14" fill="#00C896" text-anchor="middle">View</text>
    </g>
    
    <g transform="translate(330, 640)">
      <rect x="0" y="0" width="1060" height="70" rx="8" ry="8" 
            fill="#251540" opacity="0.8" />
      <text x="20" y="30" font-family="Arial, sans-serif" font-size="14" fill="#ffffff">Futuristic cityscape with neon</text>
      <text x="20" y="50" font-family="Arial, sans-serif" font-size="12" fill="#FF5277">Failed • 02/24/2025 3:45 PM</text>
      
      <rect x="950" y="15" width="90" height="40" rx="20" ry="20" 
            fill="none" stroke="#FF5277" stroke-width="1.5" />
      <text x="975" y="38" font-family="Arial, sans-serif" font-size="14" fill="#FF5277" text-anchor="middle">Retry</text>
    </g>
  </g>
</svg>