<svg xmlns="http://www.w3.org/2000/svg" viewBox="0 0 64 64" width="64" height="64">
  <defs>
    <linearGradient id="queue-gradient" x1="0%" y1="0%" x2="100%" y2="100%">
      <stop offset="0%" stop-color="#9046FF" stop-opacity="1"/>
      <stop offset="100%" stop-color="#00C896" stop-opacity="1"/>
    </linearGradient>
    <filter id="queue-glow" height="130%" width="130%">
      <feGaussianBlur in="SourceGraphic" stdDeviation="2" result="blur"/>
      <feColorMatrix in="blur" mode="matrix" values="1 0 0 0 0  0 1 0 0 0  0 0 1 0 0  0 0 0 12 -3" result="glow"/>
      <feComposite in="SourceGraphic" in2="glow" operator="over"/>
    </filter>
  </defs>
  
  <!-- Queue list -->
  <rect x="12" y="14" width="40" height="7" rx="2" ry="2" fill="#141029" stroke="url(#queue-gradient)" stroke-width="1.5" filter="url(#queue-glow)"/>
  <rect x="12" y="24" width="40" height="7" rx="2" ry="2" fill="#141029" stroke="url(#queue-gradient)" stroke-width="1.5" filter="url(#queue-glow)"/>
  <rect x="12" y="34" width="40" height="7" rx="2" ry="2" fill="#141029" stroke="url(#queue-gradient)" stroke-width="1.5" filter="url(#queue-glow)"/>
  <rect x="12" y="44" width="40" height="7" rx="2" ry="2" fill="#141029" stroke="url(#queue-gradient)" stroke-width="1.5" filter="url(#queue-glow)"/>
  
  <!-- Status indicators -->
  <circle cx="17" cy="17.5" r="2" fill="#00E0B0" filter="url(#queue-glow)"/>
  <circle cx="17" cy="27.5" r="2" fill="#9046FF" filter="url(#queue-glow)">
    <animate attributeName="opacity" values="1;0.5;1" dur="2s" repeatCount="indefinite"/>
  </circle>
  <circle cx="17" cy="37.5" r="2" fill="#474168" filter="url(#queue-glow)"/>
  <circle cx="17" cy="47.5" r="2" fill="#474168" filter="url(#queue-glow)"/>
  
  <!-- Progress bars -->
  <rect x="25" y="16" width="20" height="3" rx="1.5" ry="1.5" fill="#141029" stroke="#3D1E6B" stroke-width="0.5"/>
  <rect x="25" y="16" width="20" height="3" rx="1.5" ry="1.5" fill="url(#queue-gradient)" filter="url(#queue-glow)"/>
  
  <rect x="25" y="26" width="20" height="3" rx="1.5" ry="1.5" fill="#141029" stroke="#3D1E6B" stroke-width="0.5"/>
  <rect x="25" y="26" width="12" height="3" rx="1.5" ry="1.5" fill="url(#queue-gradient)" filter="url(#queue-glow)"/>
  
  <rect x="25" y="36" width="20" height="3" rx="1.5" ry="1.5" fill="#141029" stroke="#3D1E6B" stroke-width="0.5"/>
  <rect x="25" y="46" width="20" height="3" rx="1.5" ry="1.5" fill="#141029" stroke="#3D1E6B" stroke-width="0.5"/>
</svg>