<svg xmlns="http://www.w3.org/2000/svg" viewBox="0 0 64 64" width="64" height="64">
  <defs>
    <linearGradient id="settings-gradient" x1="0%" y1="0%" x2="100%" y2="100%">
      <stop offset="0%" stop-color="#9046FF" stop-opacity="1"/>
      <stop offset="100%" stop-color="#00C896" stop-opacity="1"/>
    </linearGradient>
    <filter id="settings-glow" height="130%" width="130%">
      <feGaussianBlur in="SourceGraphic" stdDeviation="2" result="blur"/>
      <feColorMatrix in="blur" mode="matrix" values="1 0 0 0 0  0 1 0 0 0  0 0 1 0 0  0 0 0 12 -3" result="glow"/>
      <feComposite in="SourceGraphic" in2="glow" operator="over"/>
    </filter>
  </defs>
  
  <!-- Gear outer ring -->
  <path d="M32,14 L35.5,14.5 L37,18 L40.5,19.5 L44,17.5 L46.5,20 L45,23.5 L46.5,27 L50,28.5 L50,33 L46.5,34.5 L45,38 L46.5,41.5 L44,44 L40.5,42.5 L37,44 L35.5,47.5 L32,48 L28.5,47.5 L27,44 L23.5,42.5 L20,44 L17.5,41.5 L19,38 L17.5,34.5 L14,33 L14,28.5 L17.5,27 L19,23.5 L17.5,20 L20,17.5 L23.5,19.5 L27,18 L28.5,14.5 Z" 
        fill="#141029" stroke="url(#settings-gradient)" stroke-width="1.5" filter="url(#settings-glow)"/>
  
  <!-- Center circle -->
  <circle cx="32" cy="32" r="8" fill="url(#settings-gradient)" filter="url(#settings-glow)">
    <animate attributeName="opacity" values="0.7;1;0.7" dur="3s" repeatCount="indefinite"/>
  </circle>
  
  <!-- Connector lines -->
  <line x1="32" y1="14" x2="32" y2="24" stroke="#FFFFFF" stroke-width="1" opacity="0.5"/>
  <line x1="32" y1="40" x2="32" y2="48" stroke="#FFFFFF" stroke-width="1" opacity="0.5"/>
  <line x1="14" y1="32" x2="24" y2="32" stroke="#FFFFFF" stroke-width="1" opacity="0.5"/>
  <line x1="40" y1="32" x2="50" y2="32" stroke="#FFFFFF" stroke-width="1" opacity="0.5"/>
</svg>